Coordinates
version=1
nRows=24
nColumns=38
inDegrees=no

Units are S.I. units (second, meters, Newtons, ...)
If the header above contains a line with 'inDegrees', this indicates whether rotational values are in degrees (yes) or radians (no).

endheader
time	pelvis_tilt	pelvis_list	pelvis_rotation	pelvis_tx	pelvis_ty	pelvis_tz	hip_flexion_r	hip_adduction_r	hip_rotation_r	knee_angle_r	ankle_angle_r	subtalar_angle_r	mtp_angle_r	hip_flexion_l	hip_adduction_l	hip_rotation_l	knee_angle_l	ankle_angle_l	subtalar_angle_l	mtp_angle_l	lumbar_extension	lumbar_bending	lumbar_rotation	arm_flex_r	arm_add_r	arm_rot_r	elbow_flex_r	pro_sup_r	wrist_flex_r	wrist_dev_r	arm_flex_l	arm_add_l	arm_rot_l	elbow_flex_l	pro_sup_l	wrist_flex_l	wrist_dev_l
1.33	-2.99095	1.46467	-1.68243	0.62008	0.715438	1.04903	-0.0741878	-0.147425	0.00898551	1.05121	-0.698132	0	0	0.0844199	0.0300503	-0.0906815	0.367472	-0.160951	0	0	-0.346102	-0.00204484	0.196933	0.0425763	-0.641558	0.828558	0.913722	0.616686	0	0	0.0921313	-0.33451	0.592449	0.665344	0.929915	0	0
1.34	-3.03428	1.46175	-1.63581	0.617234	0.725033	1.05069	-0.0561937	-0.139196	0.0194108	1.07787	-0.698132	0	0	0.0718609	0.0278093	-0.0931104	0.373462	-0.153329	0	0	-0.351004	0.00435996	0.193303	0.0430674	-0.647482	0.824823	0.922606	0.616986	0	0	0.0933265	-0.335485	0.595365	0.66903	0.924721	0	0
1.35	-3.07166	1.45894	-1.5954	0.614518	0.734484	1.05239	-0.038236	-0.130248	0.0301836	1.10124	-0.698132	0	0	0.0590678	0.0250515	-0.0944387	0.376509	-0.148264	0	0	-0.355477	0.0100004	0.189696	0.0449475	-0.65238	0.823023	0.929654	0.6185	0	0	0.0948339	-0.336492	0.598056	0.672009	0.919467	0	0
1.36	-3.10166	1.45609	-1.56299	0.611891	0.743962	1.05413	-0.0203799	-0.121432	0.0413826	1.1232	-0.679999	0	0	0.0451337	0.022725	-0.094907	0.374532	-0.145874	0	0	-0.359771	0.0147865	0.186298	0.0472415	-0.656916	0.821644	0.936084	0.62011	0	0	0.0961639	-0.337469	0.600614	0.674658	0.91415	0	0
1.37	-3.12566	1.45287	-1.53746	0.609405	0.753492	1.05591	-0.00310523	-0.112533	0.0539476	1.14457	-0.631648	0	0	0.0296008	0.0209083	-0.0963244	0.368574	-0.146262	0	0	-0.364475	0.018743	0.1839	0.048388	-0.661407	0.81798	0.943143	0.621923	0	0	0.098124	-0.339134	0.606213	0.677864	0.904077	0	0
1.38	3.13458	1.4506	-1.51359	0.607007	0.763073	1.05767	0.0149768	-0.103308	0.0665724	1.15933	-0.606032	0	0	0.0142379	0.0193155	-0.0987987	0.361	-0.147782	0	0	-0.366958	0.0223919	0.181515	0.0517646	-0.664534	0.81897	0.946793	0.623373	0	0	0.0991271	-0.338966	0.607739	0.678214	0.900289	0	0
1.39	3.11567	1.44692	-1.49444	0.604915	0.772549	1.05952	0.0316793	-0.0940864	0.078932	1.17128	-0.568034	0	0	-0.00387926	0.0176659	-0.102909	0.352797	-0.149433	0	0	-0.371295	0.0253207	0.179534	0.0557084	-0.668035	0.820142	0.951713	0.62443	0	0	0.100255	-0.339612	0.609586	0.679879	0.894884	0	0
1.4	3.09541	1.44405	-1.47337	0.602905	0.782073	1.06128	0.0489837	-0.0849907	0.0882736	1.17832	-0.540472	0	0	-0.0220313	0.0154503	-0.106871	0.345536	-0.149023	0	0	-0.374317	0.0283832	0.17734	0.05941	-0.670065	0.820426	0.954697	0.623693	0	0	0.101524	-0.339899	0.611219	0.680234	0.891648	0	0
1.41	3.0733	1.44192	-1.45056	0.600931	0.791633	1.06293	0.0662369	-0.0758358	0.0959991	1.18163	-0.506505	0	0	-0.0402447	0.0132165	-0.112617	0.336273	-0.148908	0	0	-0.376466	0.0317187	0.17554	0.0632908	-0.672125	0.822043	0.957359	0.623056	0	0	0.102908	-0.339515	0.612863	0.679582	0.888498	0	0
1.42	3.04996	1.441	-1.42639	0.598976	0.801121	1.06443	0.0841703	-0.0668084	0.102365	1.18147	-0.471128	0	0	-0.0573724	0.0109802	-0.1193	0.325538	-0.149829	0	0	-0.377356	0.0351036	0.173865	0.0676073	-0.673712	0.824779	0.958867	0.622909	0	0	0.104656	-0.338358	0.614344	0.677486	0.88563	0	0
1.43	3.02573	1.44128	-1.40123	0.597035	0.810496	1.06576	0.103089	-0.0579857	0.108206	1.17809	-0.438287	0	0	-0.0730583	0.0086758	-0.125954	0.314277	-0.151503	0	0	-0.377223	0.0384265	0.172213	0.0719886	-0.674601	0.82713	0.959099	0.622045	0	0	0.106727	-0.336569	0.615334	0.674263	0.88326	0	0
1.44	3.00167	1.44251	-1.37595	0.595091	0.819746	1.06688	0.123018	-0.050566	0.111445	1.17166	-0.41317	0	0	-0.087228	0.00656829	-0.131724	0.303063	-0.153622	0	0	-0.376465	0.0414465	0.170673	0.0765068	-0.675067	0.829908	0.958341	0.621222	0	0	0.109136	-0.334574	0.616042	0.67074	0.881485	0	0
1.45	2.97607	1.44408	-1.34904	0.59314	0.828875	1.06784	0.143102	-0.0439801	0.113048	1.16178	-0.392011	0	0	-0.100732	0.00454824	-0.136116	0.291032	-0.156227	0	0	-0.37545	0.0445102	0.1692	0.0817504	-0.675639	0.833728	0.95679	0.621336	0	0	0.111676	-0.332281	0.616457	0.666827	0.880248	0	0
1.46	2.95008	1.44583	-1.32182	0.591207	0.837899	1.06866	0.163051	-0.0380404	0.114192	1.14892	-0.373538	0	0	-0.113681	0.00280326	-0.139391	0.278941	-0.159299	0	0	-0.374353	0.0475046	0.167779	0.0871936	-0.676229	0.837585	0.954964	0.621327	0	0	0.114154	-0.329724	0.616285	0.662812	0.879092	0	0
1.47	2.92339	1.44761	-1.29386	0.589266	0.846817	1.06931	0.182644	-0.0325642	0.114932	1.13328	-0.3596	0	0	-0.126031	0.0012581	-0.142576	0.26786	-0.161594	0	0	-0.373471	0.050523	0.166567	0.0922264	-0.677104	0.840414	0.953598	0.620694	0	0	0.116533	-0.327272	0.615734	0.659725	0.878228	0	0
1.48	2.89698	1.44954	-1.26601	0.587308	0.855643	1.06977	0.201847	-0.0275759	0.115011	1.11523	-0.346765	0	0	-0.137682	-6.25154e-05	-0.146118	0.25807	-0.163385	0	0	-0.372522	0.0535074	0.165554	0.0972919	-0.678452	0.843678	0.952733	0.620119	0	0	0.118911	-0.324802	0.614895	0.65729	0.877765	0	0
1.49	2.87194	1.45189	-1.23902	0.585312	0.864346	1.07	0.220874	-0.0232047	0.113966	1.09537	-0.333379	0	0	-0.148309	-0.00100602	-0.150097	0.249464	-0.164749	0	0	-0.371309	0.0562642	0.164168	0.102742	-0.680523	0.848317	0.95289	0.62004	0	0	0.121227	-0.322429	0.61345	0.65547	0.877862	0	0
1.5	2.84913	1.45469	-1.21368	0.583275	0.872959	1.06998	0.239601	-0.0199055	0.111868	1.07401	-0.319605	0	0	-0.158161	-0.00137417	-0.1538	0.241579	-0.165509	0	0	-0.36983	0.0586567	0.162046	0.108118	-0.683072	0.852997	0.954112	0.619525	0	0	0.123254	-0.320506	0.611188	0.654671	0.878291	0	0
1.51	2.82963	1.45736	-1.19185	0.581365	0.881559	1.06979	0.257672	-0.0173939	0.110258	1.05148	-0.307004	0	0	-0.168325	-0.00116561	-0.155818	0.233725	-0.165665	0	0	-0.368709	0.060414	0.159898	0.112986	-0.685464	0.856241	0.955785	0.617825	0	0	0.125019	-0.319295	0.608842	0.654814	0.878926	0	0
1.52	2.81213	1.4598	-1.17181	0.579526	0.890144	1.06947	0.274217	-0.0152595	0.108752	1.02669	-0.292823	0	0	-0.178193	-0.0009207	-0.156637	0.22702	-0.164895	0	0	-0.368257	0.0619041	0.157417	0.117796	-0.687905	0.859183	0.957887	0.61472	0	0	0.126621	-0.318521	0.605959	0.655557	0.880392	0	0
1.53	2.79876	1.46213	-1.15607	0.577805	0.898657	1.06898	0.290484	-0.0137213	0.1081	1.00222	-0.282639	0	0	-0.187353	-0.000490512	-0.157701	0.222474	-0.16288	0	0	-0.368261	0.062679	0.155291	0.122287	-0.690052	0.861697	0.959786	0.611923	0	0	0.128442	-0.318216	0.603444	0.656916	0.881692	0	0
1.54	2.78685	1.46457	-1.14161	0.57613	0.907157	1.06831	0.306074	-0.0124288	0.107536	0.976958	-0.273682	0	0	-0.195665	-7.99539e-05	-0.158456	0.21878	-0.160734	0	0	-0.368366	0.0631774	0.153246	0.126606	-0.692096	0.864404	0.961734	0.609152	0	0	0.130401	-0.318084	0.601082	0.658541	0.882466	0	0
1.55	2.77589	1.46725	-1.12761	0.574475	0.91568	1.06749	0.32083	-0.0113775	0.106727	0.950586	-0.265055	0	0	-0.202946	0.000304794	-0.158687	0.216521	-0.157918	0	0	-0.36828	0.0635004	0.150635	0.130354	-0.693812	0.865921	0.963867	0.604405	0	0	0.13204	-0.318251	0.59831	0.660426	0.883815	0	0
1.56	2.76576	1.47012	-1.11445	0.572885	0.924235	1.06653	0.334902	-0.0104581	0.106138	0.923094	-0.256987	0	0	-0.209226	0.000727603	-0.159166	0.216365	-0.154273	0	0	-0.367881	0.0636197	0.148174	0.133766	-0.695645	0.867089	0.966251	0.600714	0	0	0.13366	-0.318665	0.595964	0.662408	0.885302	0	0
